{"title":"Edge.Of.Tomorrow.2014.1080p.BluRay.DTS.x264-GKNByNW","uid":11148952,"size":12352998465,"categoryP":"video","categoryS":"hd___movies","magnet":"?xt=urn:btih:02c26a49e68ecca6e3fe1cf3c97c730b8ee1e178&amp;dn=Edge.Of.Tomorrow.2014.1080p.BluRay.DTS.x264-GKNByNW&amp;tr=udp%3A%2F%2Ftracker.openbittorrent.com%3A80&amp;tr=udp%3A%2F%2Fopen.demonii.com%3A1337&amp;tr=udp%3A%2F%2Ftracker.coppersurfer.tk%3A6969&amp;tr=udp%3A%2F%2Fexodus.desync.com%3A6969","seeders":2,"leechers":0,"uploader":"GKNByNW","files":8,"time":1412299569,"description":"Release Title : Edge.Of.Tomorrow.2014.1080p.BluRay.DTS.x264-GKNByNW\nRelease Date : 6 June 2014 (USA)\nRelease Length : 1:53:29\nGenre : Action | Sci-Fi\nLanguage : English\nSource : Edge.of.Tomorrow.2014.1080p.BluRay.REMUX.AVC.DTS-HD.MA.7.1\nTotal Size : 11.5GB\n\nimdB\n---- &lt;a href=&quot;\nhttp://www.imdb.com/title/tt1631867/&quot; rel=&quot;nofollow&quot; target=&quot;_NEW&quot;&gt;\nhttp://www.imdb.com/title/tt1631867/&lt;/a&gt;\n\nStoryline: An alien race has hit the Earth in an unrelenting\nassault, unbeatable by any military unit in the world. Major\nWilliam Cage (Cruise) is an officer who has never seen a day\nof combat when he is unceremoniously dropped into what\namounts to a suicide mission. Killed within minutes, Cage\nnow finds himself inexplicably thrown into a time loop-forcing\nhim to live out the same brutal combat over and over, fighting\nand dying again...and again. But with each battle, Cage becomes\nable to engage the adversaries with increasing skill,\nalongside Special Forces warrior Rita Vrataski (Blunt). And,\nas Cage and Vrataski take the fight to the aliens, each\nrepeated encounter gets them one step closer to defeating\nthe enemy.\n\nCast\n----\nTom Cruise\t\t~\tCage\nEmily Blunt\t\t~\tRita\nBrendan Gleeson\t\t~\tGeneral Brigham\nBill Paxton\t\t~\tMaster Sergeant Farell\nJonas Armstrong\t\t~\tSkinner\nTony Way\t\t~\tKimmel\nKick Gurry\t\t~\tGriff\nFranz Drameh\t\t~\tFord\nDragomir Mrsic\t\t~\tKuntz\nCharlotte Riley\t\t~\tNance\nMasayoshi Haneda\t~\tTakeda\nTerence Maynard\t\t~\tCruel Sergeant\nNoah Taylor\t\t~\tDr. Carter\nLara Pulver\t\t~\tKaren Lord\nMadeleine Mantock\t~\tJulie\n\n~~~~~~~~~~~~~~~~~~~~\n\nVideo Information\n-----------------\nID : 1\nFormat : AVC\nFormat/Info : Advanced Video Codec\nFormat profile : &lt;a class=&quot;__cf_email__&quot; href=&quot;/cdn-cgi/l/email-protection&quot; data-cfemail=&quot;cc84a5aba48c80f8e2fd&quot;&gt;[email&amp;#160;protected]&lt;/a&gt;&lt;script cf-hash='f9e31' type=&quot;text/javascript&quot;&gt;\n/* &lt;![CDATA[ */!function(){try{var t=&quot;currentScript&quot;in document?document.currentScript:function(){for(var t=document.getElementsByTagName(&quot;script&quot;),e=t.length;e--;)if(t[e].getAttribute(&quot;cf-hash&quot;))return t[e]}();if(t&amp;&amp;t.previousSibling){var e,r,n,i,c=t.previousSibling,a=c.getAttribute(&quot;data-cfemail&quot;);if(a){for(e=&quot;&quot;,r=parseInt(a.substr(0,2),16),n=2;a.length-n;n+=2)i=parseInt(a.substr(n,2),16)^r,e+=String.fromCharCode(i);e=document.createTextNode(e),c.parentNode.replaceChild(e,c)}}}catch(u){}}();/* ]]&gt; */&lt;/script&gt;\nFormat settings, CABAC : Yes\nFormat settings, ReFrames : 5 frames\nCodec ID : V_MPEG4/ISO/AVC\nDuration : 1h 53mn\nBit rate : 13.0 Mbps\nWidth : 1 920 pixels\nHeight : 800 pixels\nDisplay aspect ratio : 2.40:1\nFrame rate mode : Constant\nFrame rate : 23.976 fps\nColor space : YUV\nChroma subsampling : 4:2:0\nBit depth : 8 bits\nScan type : Progressive\nBits/(Pixel*Frame) : 0.353\nStream size : 10.1 GiB (88%)\nWriting library : x264 core 138 r2358 9e941d1\n\nAudio Information\n-----------------\nID : 2\nFormat : DTS\nFormat/Info : Digital Theater Systems\nMode : 16\nFormat settings, Endianness : Big\nCodec ID : A_DTS\nDuration : 1h 53mn\nBit rate mode : Constant\nBit rate : 1 509 Kbps\nChannel(s) : 6 channels\nChannel positions : Front: L C R, Side: L R, LFE\nSampling rate : 48.0 KHz\nBit depth : 24 bits\nCompression mode : Lossy\nStream size : 1.20 GiB (10%)\nTitle : English\nLanguage : English\nDefault : Yes\nForced : No\n\nText #1 Information\n----------------\nID : 3\nFormat : UTF-8\nCodec ID : S_TEXT/UTF8\nCodec ID/Info : UTF-8 Plain Text\nTitle : English SDH\nLanguage : English\nDefault : No\nForced : No\n\nChapters : Yes\n\n~~~~~~~~~~~~~~~~~~~~\n\nPlease seed as much as you take.\n\n---==* GKNByNW *==---","torrent":{"xt":"urn:btih:02c26a49e68ecca6e3fe1cf3c97c730b8ee1e178","amp;dn":"Edge.Of.Tomorrow.2014.1080p.BluRay.DTS.x264-GKNByNW","amp;tr":["udp%3A%2F%2Ftracker.openbittorrent.com%3A80","udp%3A%2F%2Fopen.demonii.com%3A1337","udp%3A%2F%2Ftracker.coppersurfer.tk%3A6969","udp%3A%2F%2Fexodus.desync.com%3A6969"],"infoHash":"02c26a49e68ecca6e3fe1cf3c97c730b8ee1e178","infoHashBuffer":{"type":"Buffer","data":[2,194,106,73,230,142,204,166,227,254,28,243,201,124,115,11,142,225,225,120]},"announce":[],"urlList":[]}}